<svg xmlns="http://www.w3.org/2000/svg" fill="none" viewBox="0 0 192 192">
  <path fill="#B4E49B" d="M0 107h192v85H0z"/>
  <path fill="#8DDCF7" d="M0 0h192v85H0z"/>
  <path fill="#EAE8E6" d="M0 85h192v22H0z"/>
  <path fill="#477001" d="M160 155h32v22h-32zM0 155h24v22H0zm34 0h32v22H34zm42 0h32v22H76zm42 0h32v22h-32z"/>
  <path fill="#fff" d="m81 100.277-10.543 2.825c-9.603 2.573-19.473-3.125-22.046-12.728-2.573-9.602 3.126-19.472 12.728-22.045l14.581-3.907 5.406-5.406A23.91 23.91 0 0 1 75 43c0-13.255 10.745-24 24-24s24 10.745 24 24a23.894 23.894 0 0 1-4.731 14.31l6.114 3.53a18.016 18.016 0 0 1 4.217 3.366 17.958 17.958 0 0 1 5.585 8.933l4.917 18.353c2.573 9.602-3.125 19.472-12.728 22.045a17.942 17.942 0 0 1-7.086.454l2.871 10.712 14.853 14.853c7.03 7.03 7.03 18.427 0 25.456-7.029 7.03-18.426 7.03-25.456 0L94.72 148.176l-2.535 9.463c-2.573 9.602-12.444 15.301-22.046 12.728-9.602-2.573-15.3-12.443-12.728-22.046l6.124-22.853a17.963 17.963 0 0 1 5.05-9.912L81 103.142v-2.865Z"/>
  <path fill="#0E90DF" d="M99 57c7.732 0 14-6.268 14-14s-6.268-14-14-14-14 6.268-14 14 6.268 14 14 14Zm8 23.826v26.486c.215.446.392.919.525 1.415l5.668 21.152 16.748 16.748a8 8 0 0 1-11.314 11.314l-16.97-16.97a7.995 7.995 0 0 1-.677-.769 7.963 7.963 0 0 1-2.698-4.151l-2.836-10.585-6.821 6.821-6.1 22.764a8.001 8.001 0 0 1-15.455-4.141l6.212-23.183a7.57 7.57 0 0 1 .073-.253 7.969 7.969 0 0 1 2.302-4.847L91 107.284V85.912l-.494.494a7.968 7.968 0 0 1-5.026 2.318l-17.612 4.719a8 8 0 1 1-4.14-15.455l17.169-4.6 11.73-11.731a7.996 7.996 0 0 1 1.877-1.396 8 8 0 0 1 8.424-.261l16.455 9.5a7.985 7.985 0 0 1 2.235 1.912 7.965 7.965 0 0 1 2.907 4.315l4.918 18.353a8 8 0 0 1-15.455 4.141l-4.235-15.806L107 80.826Z"/>
</svg>
